<svg xmlns="http://www.w3.org/2000/svg" width="327.734" height="330" viewBox="0 0 327.734 330">
  <path id="Path_138" data-name="Path 138" d="M271.53,161.2a3.745,3.745,0,1,0,.113,7.489,3.675,3.675,0,0,0,3.687-3.8A3.746,3.746,0,0,0,271.53,161.2Zm0,53.883a3.745,3.745,0,1,0,.113,7.489,3.676,3.676,0,0,0,3.687-3.8A3.744,3.744,0,0,0,271.53,215.082Zm0,53.77a3.745,3.745,0,1,0,.113,7.489,3.676,3.676,0,0,0,3.687-3.8A3.744,3.744,0,0,0,271.53,268.852Zm0,54.327a3.187,3.187,0,1,0,3.241,3.13A3.151,3.151,0,0,0,271.53,323.179Zm0-215.751a3.689,3.689,0,1,0,3.689,3.689A3.65,3.65,0,0,0,271.53,107.429Zm0-106.981a3.149,3.149,0,0,0-3.13,3.241,3.186,3.186,0,1,0,6.371-.111A3.15,3.15,0,0,0,271.53.448ZM164.447,159.635a4.919,4.919,0,1,0,4.919,4.919A4.963,4.963,0,0,0,164.447,159.635Zm0,54.552a4.42,4.42,0,0,0-4.359,4.248,4.25,4.25,0,0,0,4.359,4.137,4.4,4.4,0,0,0,4.359-4.137,4.27,4.27,0,0,0-4.359-4.248Zm0,54.106a3.8,3.8,0,1,0,0,7.6,3.918,3.918,0,0,0,3.8-3.8,3.769,3.769,0,0,0-3.8-3.8Zm0,54.439a3.243,3.243,0,1,0,3.167,3.242A3.245,3.245,0,0,0,164.447,322.732Zm0-216.2a4.3,4.3,0,1,0,4.359,4.361,4.344,4.344,0,0,0-4.359-4.361q0-.167,0,0ZM164.447,0a3.241,3.241,0,1,0,3.241,3.241A3.243,3.243,0,0,0,164.447,0ZM110.9,161.2a4.3,4.3,0,1,0,4.248,4.361A4.342,4.342,0,0,0,110.9,161.2Zm0,53.77a4.3,4.3,0,1,0,4.248,4.359,4.342,4.342,0,0,0-4.248-4.359Zm0,54.331a3.744,3.744,0,1,0,3.689,3.8,3.746,3.746,0,0,0-3.689-3.8Zm0,54.327a3.187,3.187,0,1,0,3.132,3.243A3.15,3.15,0,0,0,110.9,323.627Zm0-216.2a4.248,4.248,0,1,0,4.248,4.248,4.319,4.319,0,0,0-4.248-4.246ZM57.363,161.758a3.746,3.746,0,1,0,3.689,3.8,3.613,3.613,0,0,0-3.689-3.8Zm0,53.77a3.746,3.746,0,1,0,3.689,3.8,3.613,3.613,0,0,0-3.689-3.8Zm0,53.772a3.744,3.744,0,1,0,3.689,3.8,3.611,3.611,0,0,0-3.689-3.8Zm0,54.327a3.187,3.187,0,1,0,3.128,3.243,2.963,2.963,0,0,0-3.128-3.243ZM218.1,54.218a3.745,3.745,0,1,0,3.689,3.8,3.612,3.612,0,0,0-3.689-3.8h0ZM110.9,1.007a3.15,3.15,0,0,0-3.241,3.13,3.187,3.187,0,0,0,6.373.111A2.969,2.969,0,0,0,110.9,1.007ZM3.821,162.205a3.186,3.186,0,0,0-.113,6.371,3.186,3.186,0,1,0,.113-6.371Zm0,53.77a3.186,3.186,0,0,0-.113,6.371,3.186,3.186,0,1,0,.113-6.371Zm0,53.77a3.186,3.186,0,0,0-.113,6.371,3.186,3.186,0,1,0,.113-6.371Zm0,53.77a3.187,3.187,0,0,0-.113,6.373,3.187,3.187,0,0,0,.113-6.373Zm0-268.739a3.132,3.132,0,1,0,0,6.26A3.222,3.222,0,0,0,7.063,57.9a3.294,3.294,0,0,0-3.241-3.128Zm0,53.768a3.133,3.133,0,1,0,3.241,3.132A3.3,3.3,0,0,0,3.821,108.545ZM3.821.9A3.151,3.151,0,0,0,.58,4.025,3.15,3.15,0,0,0,3.708,7.266,3.153,3.153,0,0,0,6.951,4.135,3.149,3.149,0,0,0,3.821.9ZM217.989,160.64A4.365,4.365,0,0,0,213.629,165a4.36,4.36,0,1,0,8.719,0,4.365,4.365,0,0,0-4.36-4.359Zm0,53.77a4.359,4.359,0,1,0,4.359,4.359A4.44,4.44,0,0,0,217.989,214.41Zm0,54.329a3.8,3.8,0,0,0,0,7.6,3.917,3.917,0,0,0,3.8-3.8A3.841,3.841,0,0,0,217.989,268.739Zm0,54.441a3.243,3.243,0,1,0,3.243,3.243A3.176,3.176,0,0,0,217.989,323.179ZM271.53,53.77a3.819,3.819,0,0,0-3.8,3.689,3.8,3.8,0,1,0,3.8-3.689Zm-53.542,53.1a4.305,4.305,0,1,0,4.359,4.248,4.342,4.342,0,0,0-4.359-4.248Zm0-106.535a3.223,3.223,0,0,0-3.241,3.132,3.243,3.243,0,0,0,6.484,0A3.225,3.225,0,0,0,217.989.334ZM325.074,161.869a3.187,3.187,0,1,0,3.24,3.13,3.15,3.15,0,0,0-3.24-3.13Zm0,53.77a3.187,3.187,0,1,0,3.24,3.13A3.151,3.151,0,0,0,325.074,215.639Zm0,53.77a3.187,3.187,0,1,0,3.24,3.13A3.151,3.151,0,0,0,325.074,269.409Zm0,53.77a3.187,3.187,0,1,0,3.24,3.13A3.151,3.151,0,0,0,325.074,323.179Zm0-268.85a3.13,3.13,0,1,0,3.128,3.13,3.058,3.058,0,0,0-3.128-3.132Zm0-53.882a3.149,3.149,0,0,0-3.13,3.241,3.185,3.185,0,1,0,6.369-.111A3.148,3.148,0,0,0,325.074.448ZM57.363,107.988a3.651,3.651,0,0,0-3.689,3.689,3.688,3.688,0,1,0,7.376,0,3.582,3.582,0,0,0-3.687-3.689Zm0-106.981a3.15,3.15,0,0,0-3.241,3.13,3.185,3.185,0,1,0,6.369.111,2.963,2.963,0,0,0-3.128-3.241h0ZM164.556,54.218a3.745,3.745,0,1,0,3.689,3.8,3.612,3.612,0,0,0-3.689-3.8Zm-53.653,0a3.689,3.689,0,0,0,0,7.378,3.689,3.689,0,1,0,0-7.378Zm-53.542,0A3.65,3.65,0,0,0,53.672,57.9a3.688,3.688,0,1,0,7.376,0,3.518,3.518,0,0,0-3.687-3.687ZM325.072,108.1a3.13,3.13,0,1,0,3.128,3.128A3.055,3.055,0,0,0,325.072,108.1Z" transform="translate(-0.58)" fill="#6415db"/>
</svg>
