<svg xmlns="http://www.w3.org/2000/svg" width="245.802" height="210.845" viewBox="0 0 245.802 210.845">
  <g id="job-portal" transform="translate(0 -0.002)">
    <path id="Path_143" data-name="Path 143" d="M595.344,267.992l-113.1,38.224a5.612,5.612,0,0,1-7.105-3.516L422.755,147.694a5.612,5.612,0,0,1,3.516-7.1l113.1-38.224a5.612,5.612,0,0,1,7.105,3.516L598.86,260.887a5.612,5.612,0,0,1-3.516,7.105Z" transform="translate(-353.353 -102.068)" fill="#e6e6e6"/>
    <path id="Path_144" data-name="Path 144" d="M601.94,274.612,492.288,311.671a3.792,3.792,0,0,1-4.8-2.375L436.264,157.735a3.792,3.792,0,0,1,2.375-4.8l109.652-37.059a3.792,3.792,0,0,1,4.8,2.375l51.224,151.561A3.792,3.792,0,0,1,601.94,274.612Z" transform="translate(-362.836 -111.551)" fill="#fff"/>
    <path id="Path_145" data-name="Path 145" d="M605.024,394.262H485.642a5.612,5.612,0,0,1-5.606-5.605V225.037a5.612,5.612,0,0,1,5.606-5.605H605.024a5.612,5.612,0,0,1,5.606,5.605V388.657a5.612,5.612,0,0,1-5.606,5.606Z" transform="translate(-393.485 -183.869)" fill="#ccc"/>
    <path id="Path_146" data-name="Path 146" d="M611.57,398.99H495.824a3.792,3.792,0,0,1-3.787-3.787V235.219a3.792,3.792,0,0,1,3.787-3.787H611.57a3.792,3.792,0,0,1,3.788,3.787V395.2a3.792,3.792,0,0,1-3.787,3.787Z" transform="translate(-401.849 -192.233)" fill="#fff"/>
    <path id="Path_147" data-name="Path 147" d="M623.718,370.037H547.271a2.428,2.428,0,0,1,0-4.857h76.447a2.428,2.428,0,1,1,0,4.857Z" transform="translate(-438.654 -285.456)" fill="#ccc"/>
    <path id="Path_148" data-name="Path 148" d="M633.735,397.084H547.271a2.428,2.428,0,0,1,0-4.857h86.464a2.428,2.428,0,1,1,0,4.856Z" transform="translate(-438.654 -304.308)" fill="#ccc"/>
    <path id="Path_149" data-name="Path 149" d="M623.718,491.25H547.271a2.428,2.428,0,1,1,0-4.857h76.447a2.428,2.428,0,1,1,0,4.857Z" transform="translate(-438.654 -369.942)" fill="#f9a826"/>
    <path id="Path_150" data-name="Path 150" d="M633.735,518.3H547.271a2.428,2.428,0,1,1,0-4.857h86.464a2.428,2.428,0,0,1,0,4.857Z" transform="translate(-438.654 -388.795)" fill="#ccc"/>
    <path id="Path_151" data-name="Path 151" d="M623.718,612.463H547.271a2.428,2.428,0,1,1,0-4.857h76.447a2.428,2.428,0,1,1,0,4.857Z" transform="translate(-438.654 -454.428)" fill="#ccc"/>
    <path id="Path_152" data-name="Path 152" d="M633.735,639.511H547.271a2.428,2.428,0,0,1,0-4.857h86.464a2.428,2.428,0,1,1,0,4.857Z" transform="translate(-438.654 -473.28)" fill="#ccc"/>
    <path id="Path_153" data-name="Path 153" d="M355.313,428.785H337.74a1.365,1.365,0,0,1-1.363-1.363v-7.575a10.15,10.15,0,1,1,20.3,0v7.575A1.365,1.365,0,0,1,355.313,428.785Z" transform="translate(-293.353 -316.484)" fill="#2f2e41"/>
    <path id="Path_154" data-name="Path 154" d="M460.866,575.953a3.047,3.047,0,0,1-2.809-3.734l-9.158-5.776,5.126-2.321,7.911,5.841a3.063,3.063,0,0,1-1.07,5.989Z" transform="translate(-371.781 -424.12)" fill="#ffb8b8"/>
    <path id="Path_155" data-name="Path 155" d="M399.189,517.6a1.634,1.634,0,0,1-.855-.339L373.14,497.73l-3.248-5.777a3.205,3.205,0,0,1,.281-3.572h0a3.216,3.216,0,0,1,4.705-.366l28.082,22.776a1.646,1.646,0,0,1,.421,2.316l-2.692,3.8a1.633,1.633,0,0,1-1.1.678A1.678,1.678,0,0,1,399.189,517.6Z" transform="translate(-316.424 -370.476)" fill="#2f2e41"/>
    <path id="Path_156" data-name="Path 156" d="M77.194,639.521l3.444,1.393L87.65,628.3l-5.082-2.056Z" transform="translate(-53.805 -436.488)" fill="#ffb8b8"/>
    <path id="Path_157" data-name="Path 157" d="M266.027,767.259,272.808,770h0a4.662,4.662,0,0,1,2.573,6.07l-.057.14-11.1-4.493Z" transform="translate(-243.061 -565.705)" fill="#2f2e41"/>
    <path id="Path_158" data-name="Path 158" d="M209.618,649.9h3.715l1.767-14.328h-5.483Z" transform="translate(-146.104 -442.993)" fill="#ffb8b8"/>
    <path id="Path_159" data-name="Path 159" d="M400.876,780.926h7.316a4.662,4.662,0,0,1,4.662,4.662v.151H400.876Z" transform="translate(-338.309 -575.231)" fill="#2f2e41"/>
    <path id="Path_160" data-name="Path 160" d="M318.812,619.476a8.81,8.81,0,0,1-3.721-1,1.505,1.505,0,0,1-.809-1.058l-7.83-39.477L286.14,615.946a1.512,1.512,0,0,1-.857.723c-4.375,1.462-6.761-.838-7.584-1.895a1.488,1.488,0,0,1-.169-1.543l9.408-20.438,5.688-19.414,5.75-14.208.125.013,19.227,2.024,2.338,12.858,2.354,42.812a1.487,1.487,0,0,1-.275.957A3.919,3.919,0,0,1,318.812,619.476Z" transform="translate(-252.238 -420.668)" fill="#2f2e41"/>
    <circle id="Ellipse_13" data-name="Ellipse 13" cx="7.442" cy="7.442" r="7.442" transform="translate(48.237 97.302)" fill="#ffb8b8"/>
    <path id="Path_161" data-name="Path 161" d="M359,511.772c-3.24,0-7.249-1.9-11.957-5.663l-.08-.064,3.329-26.259.155-.006a16.745,16.745,0,0,1,11.843,3.7l.028.029,2.6,3.344v.061l.367,20.54-.009.029a6.538,6.538,0,0,1-4.177,3.987A7.254,7.254,0,0,1,359,511.772Z" transform="translate(-300.729 -365.321)" fill="#f9a826"/>
    <path id="Path_162" data-name="Path 162" d="M345.147,523.652a1.655,1.655,0,0,1-1.595-1.227l-4.569-17.3-2.895,15.76a1.645,1.645,0,0,1-1.849,1.335l-12.6-1.759A1.648,1.648,0,0,1,320.3,518.3l6.376-18.792L325.25,488.5a8.245,8.245,0,0,1,7.833-9.3l.128-.005,6.063,14.622.964-3.857,1.509-8.3.225.131a13.414,13.414,0,0,1,6.7,12.228l-.382,8.793,3.387,17.953a1.651,1.651,0,0,1-1.311,1.924l-4.913.936A1.634,1.634,0,0,1,345.147,523.652Z" transform="translate(-282.088 -364.925)" fill="#2f2e41"/>
    <path id="Path_163" data-name="Path 163" d="M370.875,426.877H360.129l-.11-1.543-.551,1.543h-1.655l-.218-3.058-1.092,3.058h-3.2v-.151a8.038,8.038,0,0,1,8.029-8.029h1.515a8.039,8.039,0,0,1,8.029,8.029Z" transform="translate(-305.15 -322.757)" fill="#2f2e41"/>
    <path id="Path_164" data-name="Path 164" d="M435.873,796.538H194.686a.3.3,0,1,1,0-.606H435.873a.3.3,0,0,1,0,.606Z" transform="translate(-194.383 -585.691)" fill="#ccc"/>
    <path id="Path_165" data-name="Path 165" d="M387.537,585.346a3.391,3.391,0,0,0,3.869,3.36,5.709,5.709,0,0,0,5.234,3.428h0a5.708,5.708,0,0,0,5.708-5.708v-4.946c0-1.273-1.032-1.7-2.305-1.7h-6.807c-1.273,0-2.305.426-2.305,1.7v.472a3.4,3.4,0,0,0-3.394,3.394Zm.926,0a2.471,2.471,0,0,1,2.469-2.468v3.549a5.716,5.716,0,0,0,.169,1.38c-.056,0-.112.009-.169.009a2.471,2.471,0,0,1-2.469-2.469Z" transform="translate(-329.012 -435.033)" fill="#f9a826"/>
    <path id="Path_166" data-name="Path 166" d="M365.178,579.591a3.047,3.047,0,0,0-4.566-.991l-9.076-5.905.035,5.626,8.613,4.745a3.063,3.063,0,0,0,4.994-3.476Z" transform="translate(-303.92 -430.094)" fill="#ffb8b8"/>
    <path id="Path_167" data-name="Path 167" d="M333.249,522.648a1.364,1.364,0,0,1-.964-.4l-11.556-11.556a3.056,3.056,0,0,1-.823-2.858c.989-4.325,3.4-14.658,4.417-17.2a8.992,8.992,0,0,1,3.9-4.539l.045-.023,3.659.676.322,11.285-4.419,9.47,9.4,8.871a1.359,1.359,0,0,1,.142,1.827l-3.038,3.92a1.364,1.364,0,0,1-.992.526Z" transform="translate(-281.818 -369.717)" fill="#2f2e41"/>
    <ellipse id="Ellipse_14" data-name="Ellipse 14" cx="4.242" cy="0.606" rx="4.242" ry="0.606" transform="translate(63.373 145.096)" fill="#2f2e41"/>
  </g>
</svg>
